<?xml version="1.0" encoding="utf-8"?>
<svg viewBox="1.113 6.888 60.585 35.841" xmlns="http://www.w3.org/2000/svg">
  <path d="M 26.338 37.18 C 16.745 40.162 1.251 37.114 1.114 23.83 C 0.977 10.547 17.511 18.459 17.511 18.459 L 26.338 37.18 Z" fill="#FFC250" style=""/>
  <path d="M 5.779 16.377 C 12.473 15.23 17.558 24.101 23.184 33.355 C 28.809 42.61 43.458 46.277 52.817 38.496 C 62.177 30.714 66.138 17.083 54.646 8.954 C 43.153 0.824 35.978 19.282 26.085 19.788 C 16.193 20.295 16.12 12.942 5.779 16.377 Z" fill="#FFD064" style=""/>
  <circle cx="53.677" cy="24.245" r="2.937" fill="#FFE19D" style=""/>
  <circle cx="48.045" cy="26.446" r="2.204" fill="#FFE19D" style=""/>
  <circle cx="51.963" cy="29.386" r="1.715" fill="#FFE19D" style=""/>
  <circle cx="24.965" cy="24.217" r="1.967" fill="#FFE19D"/>
  <circle cx="21.194" cy="25.692" r="1.476" fill="#FFE19D"/>
  <circle cx="23.817" cy="27.66" r="1.148" fill="#FFE19D"/>
  <path d="M 29.796 38.277 L 29.796 33.956 L 31.395 33.956 C 31.74 33.956 32.026 34.014 32.253 34.129 C 32.479 34.245 32.648 34.403 32.759 34.605 C 32.871 34.806 32.926 35.032 32.926 35.283 C 32.926 35.523 32.872 35.741 32.765 35.94 C 32.658 36.14 32.492 36.3 32.265 36.422 C 32.038 36.544 31.749 36.604 31.395 36.604 L 30.586 36.604 L 30.586 38.277 L 29.796 38.277 Z M 30.586 35.962 L 31.345 35.962 C 31.621 35.962 31.819 35.901 31.941 35.78 C 32.063 35.659 32.123 35.493 32.123 35.283 C 32.123 35.069 32.063 34.902 31.941 34.78 C 31.819 34.659 31.621 34.599 31.345 34.599 L 30.586 34.599 L 30.586 35.962 Z" style="white-space: pre; fill: rgb(0, 0, 0);"/>
  <path d="M 33.785 37.312 C 33.581 37.312 33.415 37.28 33.285 37.215 C 33.154 37.15 33.057 37.062 32.994 36.955 C 32.931 36.846 32.898 36.727 32.898 36.597 C 32.898 36.378 32.984 36.2 33.156 36.063 C 33.328 35.927 33.585 35.858 33.928 35.858 L 34.529 35.858 L 34.529 35.801 C 34.529 35.639 34.483 35.52 34.39 35.443 C 34.298 35.367 34.184 35.329 34.048 35.329 C 33.923 35.329 33.815 35.359 33.723 35.418 C 33.631 35.477 33.574 35.562 33.551 35.677 L 32.956 35.677 C 32.971 35.505 33.029 35.356 33.13 35.229 C 33.23 35.102 33.359 35.004 33.518 34.936 C 33.677 34.867 33.855 34.834 34.052 34.834 C 34.389 34.834 34.654 34.918 34.848 35.086 C 35.042 35.254 35.139 35.492 35.139 35.801 L 35.139 37.255 L 34.62 37.255 L 34.562 36.873 C 34.493 37.001 34.395 37.105 34.269 37.188 C 34.144 37.271 33.982 37.312 33.785 37.312 Z M 33.923 36.836 C 34.098 36.836 34.234 36.779 34.331 36.664 C 34.428 36.55 34.489 36.408 34.514 36.24 L 33.995 36.24 C 33.832 36.24 33.717 36.269 33.647 36.328 C 33.577 36.387 33.542 36.459 33.542 36.545 C 33.542 36.637 33.577 36.709 33.647 36.759 C 33.717 36.81 33.809 36.836 33.923 36.836 Z M 35.545 38.304 L 35.545 34.891 L 36.088 34.891 L 36.155 35.229 C 36.231 35.124 36.332 35.032 36.458 34.953 C 36.583 34.873 36.746 34.834 36.946 34.834 C 37.169 34.834 37.368 34.888 37.542 34.995 C 37.717 35.103 37.855 35.251 37.957 35.439 C 38.059 35.626 38.109 35.84 38.109 36.078 C 38.109 36.316 38.059 36.529 37.957 36.714 C 37.855 36.9 37.717 37.047 37.542 37.153 C 37.368 37.259 37.169 37.312 36.946 37.312 C 36.768 37.312 36.612 37.279 36.479 37.212 C 36.346 37.145 36.238 37.051 36.155 36.931 L 36.155 38.304 Z M 36.817 36.779 C 37.011 36.779 37.172 36.713 37.299 36.583 C 37.426 36.453 37.49 36.285 37.49 36.078 C 37.49 35.871 37.426 35.701 37.299 35.568 C 37.172 35.434 37.011 35.367 36.817 35.367 C 36.621 35.367 36.459 35.434 36.334 35.565 C 36.208 35.697 36.145 35.867 36.145 36.073 C 36.145 36.28 36.208 36.449 36.334 36.581 C 36.459 36.712 36.621 36.779 36.817 36.779 Z M 39.292 37.312 C 39.089 37.312 38.922 37.28 38.792 37.215 C 38.661 37.15 38.564 37.062 38.501 36.955 C 38.437 36.846 38.405 36.727 38.405 36.597 C 38.405 36.378 38.491 36.2 38.663 36.063 C 38.834 35.927 39.092 35.858 39.435 35.858 L 40.035 35.858 L 40.035 35.801 C 40.035 35.639 39.99 35.52 39.897 35.443 C 39.805 35.367 39.691 35.329 39.554 35.329 C 39.43 35.329 39.322 35.359 39.231 35.418 C 39.138 35.477 39.081 35.562 39.059 35.677 L 38.462 35.677 C 38.478 35.505 38.536 35.356 38.636 35.229 C 38.737 35.102 38.866 35.004 39.026 34.936 C 39.185 34.867 39.362 34.834 39.559 34.834 C 39.895 34.834 40.161 34.918 40.355 35.086 C 40.549 35.254 40.646 35.492 40.646 35.801 L 40.646 37.255 L 40.126 37.255 L 40.069 36.873 C 39.999 37.001 39.901 37.105 39.776 37.188 C 39.651 37.271 39.489 37.312 39.292 37.312 Z M 39.43 36.836 C 39.605 36.836 39.741 36.779 39.837 36.664 C 39.935 36.55 39.996 36.408 40.021 36.24 L 39.502 36.24 C 39.34 36.24 39.224 36.269 39.154 36.328 C 39.084 36.387 39.049 36.459 39.049 36.545 C 39.049 36.637 39.084 36.709 39.154 36.759 C 39.224 36.81 39.316 36.836 39.43 36.836 Z M 41.051 38.304 L 41.051 34.891 L 41.595 34.891 L 41.662 35.229 C 41.738 35.124 41.839 35.032 41.964 34.953 C 42.09 34.873 42.253 34.834 42.453 34.834 C 42.676 34.834 42.874 34.888 43.049 34.995 C 43.224 35.103 43.362 35.251 43.464 35.439 C 43.566 35.626 43.616 35.84 43.616 36.078 C 43.616 36.316 43.566 36.529 43.464 36.714 C 43.362 36.9 43.224 37.047 43.049 37.153 C 42.874 37.259 42.676 37.312 42.453 37.312 C 42.275 37.312 42.119 37.279 41.986 37.212 C 41.853 37.145 41.744 37.051 41.662 36.931 L 41.662 38.304 Z M 42.325 36.779 C 42.518 36.779 42.679 36.713 42.806 36.583 C 42.933 36.453 42.996 36.285 42.996 36.078 C 42.996 35.871 42.933 35.701 42.806 35.568 C 42.679 35.434 42.518 35.367 42.325 35.367 C 42.127 35.367 41.965 35.434 41.84 35.565 C 41.715 35.697 41.652 35.867 41.652 36.073 C 41.652 36.28 41.715 36.449 41.84 36.581 C 41.965 36.712 42.127 36.779 42.325 36.779 Z M 44.799 37.312 C 44.596 37.312 44.429 37.28 44.298 37.215 C 44.168 37.15 44.071 37.062 44.008 36.955 C 43.944 36.846 43.912 36.727 43.912 36.597 C 43.912 36.378 43.998 36.2 44.17 36.063 C 44.341 35.927 44.599 35.858 44.942 35.858 L 45.542 35.858 L 45.542 35.801 C 45.542 35.639 45.496 35.52 45.404 35.443 C 45.313 35.367 45.198 35.329 45.061 35.329 C 44.938 35.329 44.829 35.359 44.737 35.418 C 44.645 35.477 44.587 35.562 44.566 35.677 L 43.969 35.677 C 43.985 35.505 44.044 35.356 44.143 35.229 C 44.244 35.102 44.373 35.004 44.532 34.936 C 44.691 34.867 44.869 34.834 45.066 34.834 C 45.403 34.834 45.668 34.918 45.862 35.086 C 46.056 35.254 46.152 35.492 46.152 35.801 L 46.152 37.255 L 45.633 37.255 L 45.576 36.873 C 45.506 37.001 45.408 37.105 45.282 37.188 C 45.157 37.271 44.996 37.312 44.799 37.312 Z M 44.938 36.836 C 45.112 36.836 45.248 36.779 45.345 36.664 C 45.441 36.55 45.503 36.408 45.529 36.24 L 45.009 36.24 C 44.846 36.24 44.731 36.269 44.661 36.328 C 44.59 36.387 44.556 36.459 44.556 36.545 C 44.556 36.637 44.59 36.709 44.661 36.759 C 44.731 36.81 44.823 36.836 44.938 36.836 Z M 47.96 37.312 C 47.782 37.312 47.627 37.279 47.493 37.212 C 47.359 37.145 47.251 37.051 47.169 36.931 L 47.102 37.255 L 46.559 37.255 L 46.559 33.823 L 47.169 33.823 L 47.169 35.229 C 47.245 35.124 47.346 35.032 47.472 34.953 C 47.597 34.873 47.76 34.834 47.96 34.834 C 48.182 34.834 48.381 34.888 48.556 34.995 C 48.731 35.103 48.868 35.251 48.97 35.439 C 49.072 35.626 49.123 35.84 49.123 36.078 C 49.123 36.316 49.072 36.529 48.97 36.714 C 48.868 36.9 48.731 37.047 48.556 37.153 C 48.381 37.259 48.182 37.312 47.96 37.312 Z M 47.831 36.779 C 48.025 36.779 48.186 36.713 48.313 36.583 C 48.44 36.453 48.504 36.285 48.504 36.078 C 48.504 35.871 48.44 35.701 48.313 35.568 C 48.186 35.434 48.025 35.367 47.831 35.367 C 47.634 35.367 47.473 35.434 47.347 35.565 C 47.222 35.697 47.159 35.867 47.159 36.073 C 47.159 36.28 47.222 36.449 47.347 36.581 C 47.473 36.712 47.634 36.779 47.831 36.779 Z M 49.819 34.524 C 49.709 34.524 49.617 34.491 49.545 34.424 C 49.474 34.357 49.438 34.273 49.438 34.171 C 49.438 34.069 49.474 33.986 49.545 33.921 C 49.617 33.855 49.709 33.823 49.819 33.823 C 49.931 33.823 50.023 33.855 50.093 33.921 C 50.166 33.986 50.2 34.069 50.2 34.171 C 50.2 34.273 50.166 34.357 50.093 34.424 C 50.023 34.491 49.931 34.524 49.819 34.524 Z M 49.514 37.255 L 49.514 34.891 L 50.124 34.891 L 50.124 37.255 Z M 51.641 37.255 C 51.393 37.255 51.194 37.194 51.045 37.074 C 50.896 36.953 50.822 36.739 50.822 36.431 L 50.822 35.401 L 50.416 35.401 L 50.416 34.891 L 50.822 34.891 L 50.893 34.257 L 51.432 34.257 L 51.432 34.891 L 52.07 34.891 L 52.07 35.401 L 51.432 35.401 L 51.432 36.435 C 51.432 36.55 51.456 36.628 51.505 36.672 C 51.555 36.714 51.639 36.736 51.761 36.736 L 52.056 36.736 L 52.056 37.255 Z" style="white-space: pre; fill: rgb(0, 0, 0);"/>
</svg>