<?xml version="1.0" encoding="utf-8"?>
<svg viewBox="0 0 151 24" fill="none" xmlns="http://www.w3.org/2000/svg">
  <path d="M16.8906 20.2838C10.4673 22.281 0.0927203 20.2399 0.000572001 11.3449C-0.0915763 2.44983 10.9806 7.74852 10.9806 7.74852L16.8906 20.2838Z" fill="#FFC250"/>
  <path d="M3.12363 6.35426C7.6066 5.58608 11.0113 11.5265 14.7783 17.7232C18.5452 23.92 28.3542 26.3762 34.6218 21.165C40.8893 15.9539 43.542 6.82713 35.8464 1.38317C28.1509 -4.06079 23.3471 8.29872 16.7221 8.63845C10.0972 8.97819 10.0489 4.05367 3.12363 6.35426Z" fill="#FFD064"/>
  <circle cx="35.1972" cy="11.6219" r="1.96745" fill="#FFE19D"/>
  <circle cx="31.4262" cy="13.0974" r="1.47559" fill="#FFE19D"/>
  <circle cx="34.0495" cy="15.0648" r="1.14768" fill="#FFE19D"/>
  <path d="M51.1087 20V3.2H57.8527C59.5967 3.2 60.9247 3.608 61.8367 4.424C62.7647 5.224 63.2287 6.256 63.2287 7.52C63.2287 8.576 62.9407 9.424 62.3647 10.064C61.8047 10.688 61.1167 11.112 60.3007 11.336C61.2607 11.528 62.0527 12.008 62.6767 12.776C63.3007 13.528 63.6127 14.408 63.6127 15.416C63.6127 16.744 63.1327 17.84 62.1727 18.704C61.2127 19.568 59.8527 20 58.0927 20H51.1087ZM54.1807 10.256H57.3967C58.2607 10.256 58.9247 10.056 59.3887 9.656C59.8527 9.256 60.0847 8.688 60.0847 7.952C60.0847 7.248 59.8527 6.696 59.3887 6.296C58.9407 5.88 58.2607 5.672 57.3487 5.672H54.1807V10.256ZM54.1807 17.504H57.6127C58.5247 17.504 59.2287 17.296 59.7247 16.88C60.2367 16.448 60.4927 15.848 60.4927 15.08C60.4927 14.296 60.2287 13.68 59.7007 13.232C59.1727 12.784 58.4607 12.56 57.5647 12.56H54.1807V17.504ZM69.3213 20.288C68.2973 20.288 67.4573 20.128 66.8013 19.808C66.1453 19.472 65.6573 19.032 65.3373 18.488C65.0173 17.944 64.8573 17.344 64.8573 16.688C64.8573 15.584 65.2893 14.688 66.1533 14C67.0173 13.312 68.3133 12.968 70.0413 12.968H73.0653V12.68C73.0653 11.864 72.8333 11.264 72.3693 10.88C71.9053 10.496 71.3293 10.304 70.6413 10.304C70.0173 10.304 69.4733 10.456 69.0093 10.76C68.5453 11.048 68.2573 11.48 68.1453 12.056H65.1453C65.2253 11.192 65.5133 10.44 66.0093 9.8C66.5213 9.16 67.1773 8.672 67.9773 8.336C68.7773 7.984 69.6733 7.808 70.6653 7.808C72.3613 7.808 73.6973 8.232 74.6733 9.08C75.6493 9.928 76.1373 11.128 76.1373 12.68V20H73.5213L73.2333 18.08C72.8813 18.72 72.3853 19.248 71.7453 19.664C71.1213 20.08 70.3133 20.288 69.3213 20.288ZM70.0173 17.888C70.8973 17.888 71.5773 17.6 72.0573 17.024C72.5533 16.448 72.8653 15.736 72.9933 14.888H70.3773C69.5613 14.888 68.9773 15.04 68.6253 15.344C68.2733 15.632 68.0973 15.992 68.0973 16.424C68.0973 16.888 68.2733 17.248 68.6253 17.504C68.9773 17.76 69.4413 17.888 70.0173 17.888ZM83.2488 20C82.0008 20 81.0008 19.696 80.2488 19.088C79.4968 18.48 79.1208 17.4 79.1208 15.848V10.664H77.0808V8.096H79.1208L79.4808 4.904H82.1928V8.096H85.4088V10.664H82.1928V15.872C82.1928 16.448 82.3128 16.848 82.5528 17.072C82.8088 17.28 83.2408 17.384 83.8488 17.384H85.3368V20H83.2488ZM91.1904 20.288C90.1664 20.288 89.3264 20.128 88.6704 19.808C88.0144 19.472 87.5264 19.032 87.2064 18.488C86.8864 17.944 86.7264 17.344 86.7264 16.688C86.7264 15.584 87.1584 14.688 88.0224 14C88.8864 13.312 90.1824 12.968 91.9104 12.968H94.9344V12.68C94.9344 11.864 94.7024 11.264 94.2384 10.88C93.7744 10.496 93.1984 10.304 92.5104 10.304C91.8864 10.304 91.3424 10.456 90.8784 10.76C90.4144 11.048 90.1264 11.48 90.0144 12.056H87.0144C87.0944 11.192 87.3824 10.44 87.8784 9.8C88.3904 9.16 89.0464 8.672 89.8464 8.336C90.6464 7.984 91.5424 7.808 92.5344 7.808C94.2304 7.808 95.5664 8.232 96.5424 9.08C97.5184 9.928 98.0064 11.128 98.0064 12.68V20H95.3904L95.1024 18.08C94.7504 18.72 94.2544 19.248 93.6144 19.664C92.9904 20.08 92.1824 20.288 91.1904 20.288ZM91.8864 17.888C92.7664 17.888 93.4464 17.6 93.9264 17.024C94.4224 16.448 94.7344 15.736 94.8624 14.888H92.2464C91.4304 14.888 90.8464 15.04 90.4944 15.344C90.1424 15.632 89.9664 15.992 89.9664 16.424C89.9664 16.888 90.1424 17.248 90.4944 17.504C90.8464 17.76 91.3104 17.888 91.8864 17.888ZM105.118 20C103.87 20 102.87 19.696 102.118 19.088C101.366 18.48 100.99 17.4 100.99 15.848V10.664H98.9499V8.096H100.99L101.35 4.904H104.062V8.096H107.278V10.664H104.062V15.872C104.062 16.448 104.182 16.848 104.422 17.072C104.678 17.28 105.11 17.384 105.718 17.384H107.206V20H105.118ZM113.059 20.288C112.035 20.288 111.195 20.128 110.539 19.808C109.883 19.472 109.395 19.032 109.075 18.488C108.755 17.944 108.595 17.344 108.595 16.688C108.595 15.584 109.027 14.688 109.891 14C110.755 13.312 112.051 12.968 113.779 12.968H116.803V12.68C116.803 11.864 116.571 11.264 116.107 10.88C115.643 10.496 115.067 10.304 114.379 10.304C113.755 10.304 113.211 10.456 112.747 10.76C112.283 11.048 111.995 11.48 111.883 12.056H108.883C108.963 11.192 109.251 10.44 109.747 9.8C110.259 9.16 110.915 8.672 111.715 8.336C112.515 7.984 113.411 7.808 114.403 7.808C116.099 7.808 117.435 8.232 118.411 9.08C119.387 9.928 119.875 11.128 119.875 12.68V20H117.259L116.971 18.08C116.619 18.72 116.123 19.248 115.483 19.664C114.859 20.08 114.051 20.288 113.059 20.288ZM113.755 17.888C114.635 17.888 115.315 17.6 115.795 17.024C116.291 16.448 116.603 15.736 116.731 14.888H114.115C113.299 14.888 112.715 15.04 112.363 15.344C112.011 15.632 111.835 15.992 111.835 16.424C111.835 16.888 112.011 17.248 112.363 17.504C112.715 17.76 113.179 17.888 113.755 17.888ZM128.903 20.288C128.007 20.288 127.223 20.12 126.551 19.784C125.879 19.448 125.335 18.976 124.919 18.368L124.583 20H121.847V2.72H124.919V9.8C125.303 9.272 125.807 8.808 126.431 8.408C127.071 8.008 127.895 7.808 128.903 7.808C130.023 7.808 131.023 8.08 131.903 8.624C132.783 9.168 133.479 9.912 133.991 10.856C134.503 11.8 134.759 12.872 134.759 14.072C134.759 15.272 134.503 16.344 133.991 17.288C133.479 18.216 132.783 18.952 131.903 19.496C131.023 20.024 130.023 20.288 128.903 20.288ZM128.255 17.6C129.231 17.6 130.039 17.272 130.679 16.616C131.319 15.96 131.639 15.112 131.639 14.072C131.639 13.032 131.319 12.176 130.679 11.504C130.039 10.832 129.231 10.496 128.255 10.496C127.263 10.496 126.447 10.832 125.807 11.504C125.183 12.16 124.871 13.008 124.871 14.048C124.871 15.088 125.183 15.944 125.807 16.616C126.447 17.272 127.263 17.6 128.255 17.6ZM138.199 6.248C137.639 6.248 137.175 6.08 136.807 5.744C136.455 5.408 136.279 4.984 136.279 4.472C136.279 3.96 136.455 3.544 136.807 3.224C137.175 2.888 137.639 2.72 138.199 2.72C138.759 2.72 139.215 2.888 139.567 3.224C139.935 3.544 140.119 3.96 140.119 4.472C140.119 4.984 139.935 5.408 139.567 5.744C139.215 6.08 138.759 6.248 138.199 6.248ZM136.663 20V8.096H139.735V20H136.663ZM147.286 20C146.038 20 145.038 19.696 144.286 19.088C143.534 18.48 143.158 17.4 143.158 15.848V10.664H141.118V8.096H143.158L143.518 4.904H146.23V8.096H149.446V10.664H146.23V15.872C146.23 16.448 146.35 16.848 146.59 17.072C146.846 17.28 147.278 17.384 147.886 17.384H149.374V20H147.286Z" fill="#F7931A" style="visibility: hidden;"/>
  <path d="M 49.054 23.597 L 49.054 3.929 L 56.331 3.929 C 57.905 3.929 59.206 4.191 60.237 4.716 C 61.267 5.241 62.035 5.961 62.541 6.879 C 63.047 7.797 63.299 8.827 63.299 9.97 C 63.299 11.057 63.056 12.054 62.569 12.962 C 62.082 13.871 61.324 14.602 60.293 15.153 C 59.262 15.706 57.942 15.983 56.331 15.983 L 52.65 15.983 L 52.65 23.597 L 49.054 23.597 Z M 52.65 13.061 L 56.106 13.061 C 57.362 13.061 58.265 12.784 58.817 12.231 C 59.37 11.679 59.647 10.925 59.647 9.97 C 59.647 8.996 59.37 8.232 58.817 7.679 C 58.265 7.128 57.362 6.851 56.106 6.851 L 52.65 6.851 L 52.65 13.061 Z" style="fill: rgb(247, 147, 26); white-space: pre;"/>
  <path d="M 67.21192875976563 19.206399145507813 Q 65.82312875976562 19.206399145507813 64.93342875976562 18.761549145507814 Q 64.04372875976563 18.316699145507812 63.60972875976562 17.578899145507812 Q 63.175728759765626 16.841099145507812 63.175728759765626 15.951399145507812 Q 63.175728759765626 14.454099145507811 64.34752875976562 13.520999145507812 Q 65.51932875976563 12.587899145507812 67.86292875976562 12.587899145507812 L 70.59712875976562 12.587899145507812 L 70.59712875976562 12.327499145507812 Q 70.59712875976562 11.220799145507812 69.96782875976562 10.699999145507812 Q 69.33852875976562 10.179199145507813 68.40542875976563 10.179199145507813 Q 67.55912875976563 10.179199145507813 66.92982875976563 10.580649145507813 Q 66.30052875976563 10.982099145507814 66.14862875976563 11.763299145507812 L 63.43612875976562 11.763299145507812 Q 63.54462875976562 10.591499145507813 64.22817875976563 9.723499145507812 Q 64.91172875976562 8.855499145507812 65.99672875976563 8.388949145507812 Q 67.08172875976562 7.922399145507812 68.42712875976562 7.922399145507812 Q 70.72732875976563 7.922399145507812 72.05102875976563 9.072499145507813 Q 73.37472875976563 10.222599145507813 73.37472875976563 12.327499145507812 L 73.37472875976563 18.945999145507812 L 71.00942875976563 18.945999145507812 L 70.74902875976562 17.209999145507812 Q 70.27162875976562 18.077999145507814 69.41447875976563 18.642199145507814 Q 68.55732875976562 19.206399145507813 67.21192875976563 19.206399145507813 Z M 67.84122875976563 17.03639914550781 Q 69.03472875976563 17.03639914550781 69.69657875976563 16.255199145507813 Q 70.35842875976563 15.473999145507813 70.53202875976562 14.323899145507813 L 68.16672875976562 14.323899145507813 Q 67.06002875976563 14.323899145507813 66.58262875976563 14.725349145507813 Q 66.10522875976562 15.126799145507812 66.10522875976562 15.712699145507813 Q 66.10522875976562 16.341999145507813 66.58262875976563 16.689199145507814 Q 67.06002875976563 17.03639914550781 67.84122875976563 17.03639914550781 Z M 75.22172589111328 23.719999145507813 L 75.22172589111328 8.182799145507813 L 77.69552589111328 8.182799145507813 L 77.99932589111329 9.723499145507812 Q 78.52012589111328 9.007399145507812 79.37727589111329 8.464899145507813 Q 80.23442589111328 7.922399145507812 81.60152589111328 7.922399145507812 Q 83.12052589111329 7.922399145507812 84.31402589111329 8.660199145507812 Q 85.50752589111329 9.397999145507812 86.20192589111328 10.678299145507813 Q 86.89632589111328 11.958599145507812 86.89632589111328 13.586099145507813 Q 86.89632589111328 15.213599145507812 86.20192589111328 16.483049145507813 Q 85.50752589111329 17.752499145507812 84.31402589111329 18.47944914550781 Q 83.12052589111329 19.206399145507813 81.60152589111328 19.206399145507813 Q 80.38632589111329 19.206399145507813 79.47492589111329 18.750699145507813 Q 78.56352589111329 18.294999145507813 77.99932589111329 17.470399145507812 L 77.99932589111329 23.719999145507813 Z M 81.01562589111329 16.77599914550781 Q 82.33932589111328 16.77599914550781 83.20732589111329 15.886299145507813 Q 84.07532589111328 14.996599145507812 84.07532589111328 13.586099145507813 Q 84.07532589111328 12.175599145507812 83.20732589111329 11.264199145507813 Q 82.33932589111328 10.352799145507813 81.01562589111329 10.352799145507813 Q 79.67022589111328 10.352799145507813 78.81307589111329 11.253349145507812 Q 77.95592589111328 12.153899145507811 77.95592589111328 13.564399145507814 Q 77.95592589111328 14.974899145507813 78.81307589111329 15.875449145507812 Q 79.67022589111328 16.77599914550781 81.01562589111329 16.77599914550781 Z M 92.28037205810547 19.206399145507813 Q 90.89157205810547 19.206399145507813 90.00187205810546 18.761549145507814 Q 89.11217205810547 18.316699145507812 88.67817205810547 17.578899145507812 Q 88.24417205810546 16.841099145507812 88.24417205810546 15.951399145507812 Q 88.24417205810546 14.454099145507811 89.41597205810547 13.520999145507812 Q 90.58777205810547 12.587899145507812 92.93137205810547 12.587899145507812 L 95.66557205810547 12.587899145507812 L 95.66557205810547 12.327499145507812 Q 95.66557205810547 11.220799145507812 95.03627205810547 10.699999145507812 Q 94.40697205810547 10.179199145507813 93.47387205810547 10.179199145507813 Q 92.62757205810547 10.179199145507813 91.99827205810547 10.580649145507813 Q 91.36897205810547 10.982099145507814 91.21707205810547 11.763299145507812 L 88.50457205810547 11.763299145507812 Q 88.61307205810547 10.591499145507813 89.29662205810547 9.723499145507812 Q 89.98017205810547 8.855499145507812 91.06517205810547 8.388949145507812 Q 92.15017205810547 7.922399145507812 93.49557205810547 7.922399145507812 Q 95.79577205810547 7.922399145507812 97.11947205810547 9.072499145507813 Q 98.44317205810547 10.222599145507813 98.44317205810547 12.327499145507812 L 98.44317205810547 18.945999145507812 L 96.07787205810547 18.945999145507812 L 95.81747205810547 17.209999145507812 Q 95.34007205810546 18.077999145507814 94.48292205810547 18.642199145507814 Q 93.62577205810547 19.206399145507813 92.28037205810547 19.206399145507813 Z M 92.90967205810547 17.03639914550781 Q 94.10317205810547 17.03639914550781 94.76502205810547 16.255199145507813 Q 95.42687205810547 15.473999145507813 95.60047205810547 14.323899145507813 L 93.23517205810546 14.323899145507813 Q 92.12847205810547 14.323899145507813 91.65107205810547 14.725349145507813 Q 91.17367205810547 15.126799145507812 91.17367205810547 15.712699145507813 Q 91.17367205810547 16.341999145507813 91.65107205810547 16.689199145507814 Q 92.12847205810547 17.03639914550781 92.90967205810547 17.03639914550781 Z M 100.29016918945312 23.719999145507813 L 100.29016918945312 8.182799145507813 L 102.76396918945312 8.182799145507813 L 103.06776918945313 9.723499145507812 Q 103.58856918945312 9.007399145507812 104.44571918945313 8.464899145507813 Q 105.30286918945312 7.922399145507812 106.66996918945313 7.922399145507812 Q 108.18896918945313 7.922399145507812 109.38246918945313 8.660199145507812 Q 110.57596918945313 9.397999145507812 111.27036918945312 10.678299145507813 Q 111.96476918945312 11.958599145507812 111.96476918945312 13.586099145507813 Q 111.96476918945312 15.213599145507812 111.27036918945312 16.483049145507813 Q 110.57596918945313 17.752499145507812 109.38246918945313 18.47944914550781 Q 108.18896918945313 19.206399145507813 106.66996918945313 19.206399145507813 Q 105.45476918945313 19.206399145507813 104.54336918945313 18.750699145507813 Q 103.63196918945313 18.294999145507813 103.06776918945313 17.470399145507812 L 103.06776918945313 23.719999145507813 Z M 106.08406918945313 16.77599914550781 Q 107.40776918945312 16.77599914550781 108.27576918945313 15.886299145507813 Q 109.14376918945312 14.996599145507812 109.14376918945312 13.586099145507813 Q 109.14376918945312 12.175599145507812 108.27576918945313 11.264199145507813 Q 107.40776918945312 10.352799145507813 106.08406918945313 10.352799145507813 Q 104.73866918945312 10.352799145507813 103.88151918945313 11.253349145507812 Q 103.02436918945313 12.153899145507811 103.02436918945313 13.564399145507814 Q 103.02436918945313 14.974899145507813 103.88151918945313 15.875449145507812 Q 104.73866918945312 16.77599914550781 106.08406918945313 16.77599914550781 Z M 117.34881535644531 19.206399145507813 Q 115.96001535644531 19.206399145507813 115.0703153564453 18.761549145507814 Q 114.18061535644532 18.316699145507812 113.74661535644532 17.578899145507812 Q 113.3126153564453 16.841099145507812 113.3126153564453 15.951399145507812 Q 113.3126153564453 14.454099145507811 114.48441535644531 13.520999145507812 Q 115.65621535644532 12.587899145507812 117.99981535644531 12.587899145507812 L 120.73401535644531 12.587899145507812 L 120.73401535644531 12.327499145507812 Q 120.73401535644531 11.220799145507812 120.10471535644531 10.699999145507812 Q 119.47541535644531 10.179199145507813 118.54231535644531 10.179199145507813 Q 117.69601535644532 10.179199145507813 117.06671535644531 10.580649145507813 Q 116.43741535644531 10.982099145507814 116.28551535644532 11.763299145507812 L 113.57301535644531 11.763299145507812 Q 113.68151535644532 10.591499145507813 114.36506535644531 9.723499145507812 Q 115.04861535644531 8.855499145507812 116.13361535644532 8.388949145507812 Q 117.21861535644531 7.922399145507812 118.56401535644531 7.922399145507812 Q 120.86421535644531 7.922399145507812 122.18791535644532 9.072499145507813 Q 123.51161535644532 10.222599145507813 123.51161535644532 12.327499145507812 L 123.51161535644532 18.945999145507812 L 121.14631535644531 18.945999145507812 L 120.88591535644531 17.209999145507812 Q 120.4085153564453 18.077999145507814 119.55136535644532 18.642199145507814 Q 118.69421535644531 19.206399145507813 117.34881535644531 19.206399145507813 Z M 117.97811535644531 17.03639914550781 Q 119.17161535644532 17.03639914550781 119.83346535644532 16.255199145507813 Q 120.49531535644532 15.473999145507813 120.66891535644531 14.323899145507813 L 118.3036153564453 14.323899145507813 Q 117.19691535644532 14.323899145507813 116.71951535644531 14.725349145507813 Q 116.24211535644531 15.126799145507812 116.24211535644531 15.712699145507813 Q 116.24211535644531 16.341999145507813 116.71951535644531 16.689199145507814 Q 117.19691535644532 17.03639914550781 117.97811535644531 17.03639914550781 Z M 131.7384201171875 19.206399145507813 Q 130.5232201171875 19.206399145507813 129.6118201171875 18.750699145507813 Q 128.7004201171875 18.294999145507813 128.1362201171875 17.470399145507812 L 127.8324201171875 18.945999145507812 L 125.3586201171875 18.945999145507812 L 125.3586201171875 3.321999145507812 L 128.1362201171875 3.321999145507812 L 128.1362201171875 9.723499145507812 Q 128.6570201171875 9.007399145507812 129.5141701171875 8.464899145507813 Q 130.3713201171875 7.922399145507812 131.7384201171875 7.922399145507812 Q 133.2574201171875 7.922399145507812 134.4509201171875 8.660199145507812 Q 135.6444201171875 9.397999145507812 136.3388201171875 10.678299145507813 Q 137.0332201171875 11.958599145507812 137.0332201171875 13.586099145507813 Q 137.0332201171875 15.213599145507812 136.3388201171875 16.483049145507813 Q 135.6444201171875 17.752499145507812 134.4509201171875 18.47944914550781 Q 133.2574201171875 19.206399145507813 131.7384201171875 19.206399145507813 Z M 131.1525201171875 16.77599914550781 Q 132.4762201171875 16.77599914550781 133.3442201171875 15.886299145507813 Q 134.2122201171875 14.996599145507812 134.2122201171875 13.586099145507813 Q 134.2122201171875 12.175599145507812 133.3442201171875 11.264199145507813 Q 132.4762201171875 10.352799145507813 131.1525201171875 10.352799145507813 Q 129.8071201171875 10.352799145507813 128.9499701171875 11.253349145507812 Q 128.0928201171875 12.153899145507811 128.0928201171875 13.564399145507814 Q 128.0928201171875 14.974899145507813 128.9499701171875 15.875449145507812 Q 129.8071201171875 16.77599914550781 131.1525201171875 16.77599914550781 Z M 140.2038662841797 6.511899145507812 Q 139.4443662841797 6.511899145507812 138.9561162841797 6.0561991455078115 Q 138.46786628417968 5.600499145507813 138.46786628417968 4.906099145507811 Q 138.46786628417968 4.211699145507811 138.9561162841797 3.7668491455078126 Q 139.4443662841797 3.321999145507812 140.2038662841797 3.321999145507812 Q 140.9633662841797 3.321999145507812 141.4516162841797 3.7668491455078126 Q 141.9398662841797 4.211699145507811 141.9398662841797 4.906099145507811 Q 141.9398662841797 5.600499145507813 141.4516162841797 6.0561991455078115 Q 140.9633662841797 6.511899145507812 140.2038662841797 6.511899145507812 Z M 138.8150662841797 18.945999145507812 L 138.8150662841797 8.182799145507813 L 141.5926662841797 8.182799145507813 L 141.5926662841797 18.945999145507812 Z M 148.49597966308593 18.945999145507812 Q 146.80337966308593 18.945999145507812 145.78347966308593 18.121399145507812 Q 144.76357966308595 17.296799145507812 144.76357966308595 15.191899145507811 L 144.76357966308595 10.504699145507812 L 142.91907966308594 10.504699145507812 L 142.91907966308594 8.182799145507813 L 144.76357966308595 8.182799145507813 L 145.08907966308593 5.296699145507812 L 147.54117966308593 5.296699145507812 L 147.54117966308593 8.182799145507813 L 150.44897966308594 8.182799145507813 L 150.44897966308594 10.504699145507812 L 147.54117966308593 10.504699145507812 L 147.54117966308593 15.213599145507812 Q 147.54117966308593 15.994799145507812 147.87752966308594 16.287749145507814 Q 148.21387966308595 16.58069914550781 149.03847966308595 16.58069914550781 L 150.38387966308593 16.58069914550781 L 150.38387966308593 18.945999145507812 Z" style="fill: rgb(247, 147, 26); white-space: pre;"/>
</svg>